<?xml version="1.0" encoding="UTF-8" standalone="no"?>
<!-- Svg Vector Icons : http://www.onlinewebfonts.com/icon -->

<svg
   version="1.1"
   x="0px"
   y="0px"
   viewBox="0 0 1252.3793 1252.3799"
   enable-background="new 0 0 1000 1000"
   xml:space="preserve"
   id="svg10"
   sodipodi:docname="beer.svg"
   width="1252.3793"
   height="1252.3799"
   inkscape:version="1.1 (c4e8f9ed74, 2021-05-24)"
   xmlns:inkscape="http://www.inkscape.org/namespaces/inkscape"
   xmlns:sodipodi="http://sodipodi.sourceforge.net/DTD/sodipodi-0.dtd"
   xmlns="http://www.w3.org/2000/svg"
   xmlns:svg="http://www.w3.org/2000/svg"><defs
   id="defs14" /><sodipodi:namedview
   id="namedview12"
   pagecolor="#ffffff"
   bordercolor="#666666"
   borderopacity="1.0"
   inkscape:pageshadow="2"
   inkscape:pageopacity="0.0"
   inkscape:pagecheckerboard="0"
   showgrid="false"
   fit-margin-top="0"
   fit-margin-left="0"
   fit-margin-right="0"
   fit-margin-bottom="0"
   inkscape:zoom="0.829"
   inkscape:cx="286.48975"
   inkscape:cy="626.05549"
   inkscape:window-width="3440"
   inkscape:window-height="1381"
   inkscape:window-x="0"
   inkscape:window-y="0"
   inkscape:window-maximized="1"
   inkscape:current-layer="svg10" />
<metadata
   id="metadata2"> Svg Vector Icons : http://www.onlinewebfonts.com/icon </metadata>
<ellipse
   style="fill:#d69418;fill-opacity:1;fill-rule:evenodd;stroke-width:1.23447"
   id="path38"
   cx="626.18964"
   cy="626.18994"
   rx="626.18964"
   ry="626.18994" /><g
   id="g8"
   transform="translate(194.97653,124.89185)"><g
     transform="matrix(1,0,0,-1,0,1920)"
     id="g6"><path
       d="m 152.8,930 c -22.4,0 -41.3,8 -56.6,24 -15.3,16 -23,35.3 -23,58 v 539.8 c 0,12.8 -2.1,25.6 -6.4,38.3 -4.2,12.7 -8.9,23.4 -14.1,32.2 -5.2,8.7 -9.9,18.5 -14.1,29.3 -4.2,10.8 -6.4,20.8 -6.4,30.1 0,25.1 5.7,48.3 17,69.5 11.3,21.2 26.8,37.9 46.3,50.2 19.5,12.3 40.9,18.4 64.1,18.4 20.2,0 39.2,-2.9 57,-8.6 4.9,18.6 12.3,35 22.1,49.2 10.9,16.1 24.8,28.4 41.6,36.9 16.8,8.5 35.3,12.7 55.5,12.7 31.1,0 58.7,-5.5 82.6,-16.4 23.9,-10.9 43.7,-25.4 59.2,-43.4 24.9,15.3 50.6,23 77.1,23 8.5,0 16.8,-0.8 25,-2.5 19.1,-4.1 35.5,-11.2 49.2,-21.3 13.7,-10.1 25.8,-23.8 36.5,-41 11.5,5.7 24.3,8.6 38.5,8.6 16.9,0 33.8,-4 50.6,-11.9 16.8,-7.9 30.9,-18.5 42.2,-31.8 11.3,-13.3 17.6,-27.1 18.7,-41.6 0.8,-9.6 1.2,-18.2 1.2,-25.8 0,-10.9 -1,-20.4 -2.9,-28.3 -1.9,-7.9 -3.8,-13.6 -5.7,-17 -1.9,-3.4 -5.1,-8.1 -9.4,-14.1 -6.3,-7.9 -15.2,-15.8 -26.8,-23.8 -11.6,-7.9 -21.7,-13.9 -30.1,-18 l -12.7,-6.1 v -12.7 h 107 c 48.6,0 85.1,-15.8 109.4,-47.5 14.8,-19.7 22.1,-46.2 22.1,-79.5 0,-35.5 -9.3,-87.2 -27.9,-154.9 -7.7,-28.1 -17.5,-53.5 -29.5,-76 -12,-22.5 -24.7,-41.1 -38.1,-55.5 -13.4,-14.5 -28.4,-27 -45.1,-37.5 -16.7,-10.5 -32.7,-18.4 -48.2,-23.8 -15.4,-5.3 -32,-9.4 -49.8,-12.1 V 1012 c 0,-14.8 -3.8,-28.5 -11.5,-41.2 -7.7,-12.7 -18,-22.7 -30.9,-29.9 -13,-7.2 -27,-10.9 -42,-10.9 z m 43.5,414.4 c 8.7,0 16.3,2.1 22.7,6.4 6.4,4.2 11.1,9.4 13.9,15.4 2.9,6 4.3,12.4 4.3,19.3 v 117.2 c 0.3,3.6 0.8,5.3 1.6,5.3 0.5,0 1.4,-1.6 2.5,-4.9 7.1,-23 20.1,-34.4 38.9,-34.4 6.6,0 12.2,2.9 16.8,8.8 4.6,5.9 8,12.6 10,20.3 2,7.7 3.3,16.1 3.9,25.4 0.5,10.7 2.4,20.8 5.5,30.5 3.1,9.7 7.6,19 13.3,27.9 5.7,8.9 13.5,16.4 23.2,22.5 9.7,6.1 20.8,10 33.4,11.7 3.8,0.5 14,1.1 30.5,1.6 16.5,0.5 35.2,1.2 55.9,2 20.8,0.8 43.9,2.1 69.5,3.9 25.6,1.8 50.1,4.6 73.6,8.6 23.5,4 45.2,8.9 65.2,15 20,6.1 35.9,14.1 48,24.2 12,10.1 18,21.6 18,34.4 0,16.1 -5.9,28.2 -17.6,36.3 -11.7,8.1 -26.2,12.1 -43.4,12.1 -12.3,0 -24.2,-2 -35.7,-5.9 -11.5,-4 -20.2,-9.4 -26.2,-16.2 -0.5,1.6 -1.4,3.8 -2.5,6.6 -1.1,2.7 -3.5,7.7 -7.4,15 -3.8,7.2 -7.9,13.7 -12.3,19.5 -4.4,5.7 -10,11.4 -17,17 -7,5.6 -14.3,9.4 -21.9,11.3 -4.6,0.8 -9.3,1.2 -13.9,1.2 -17.8,0 -34.3,-6.4 -49.6,-19.1 -15.3,-12.7 -27.3,-30.7 -36.1,-53.9 -15,72.4 -55.2,107.2 -120.5,104.5 -12,-0.5 -22.9,-3.3 -32.6,-8.2 -9.7,-4.9 -17.4,-11.1 -23,-18.6 -5.6,-7.5 -10.5,-15.7 -14.6,-24.6 -4.1,-8.9 -7,-17.7 -8.6,-26.4 -1.6,-8.7 -2.9,-16.7 -3.7,-24 -0.8,-7.2 -1.2,-13.2 -1.2,-17.8 l 0.4,-6.6 c -0.5,0.5 -1.4,1.3 -2.5,2.3 -1.1,1 -3.3,2.9 -6.6,5.9 -3.3,3 -6.7,5.8 -10.2,8.4 -3.5,2.6 -8,5.5 -13.3,8.8 -5.3,3.3 -10.5,6.1 -15.6,8.4 -5.1,2.3 -10.7,4.3 -17,5.9 -6.3,1.6 -12.3,2.5 -18,2.5 -7.9,0 -15.4,-1.5 -22.5,-4.5 -25.4,-11.7 -38.1,-28.7 -38.1,-50.8 0,-9.3 2,-20.6 6.1,-33.8 4.1,-13.3 8.6,-25.8 13.5,-37.5 4.9,-11.8 9.4,-25.6 13.5,-41.6 4.1,-16 6.1,-30.8 6.1,-44.5 V 1386 c 0,-10.7 3.6,-20.2 10.9,-28.7 7.5,-8.7 17.5,-12.9 30.4,-12.9 z m 368.9,-311.9 c 11.2,0 20.8,4 28.9,12.1 8.1,8.1 12.1,17.7 12.1,28.9 v 493.9 c -28.1,-4.1 -55.5,-7.8 -82,-11.1 v -482.8 c 0,-11.2 4,-20.8 12.1,-28.9 8,-8.1 17.7,-12.1 28.9,-12.1 z m -164,0 c 11.2,0 20.8,4 28.9,12.1 8.1,8.1 12.1,17.7 12.1,28.9 v 473.8 c -4.1,-0.5 -9.4,-1.4 -15.8,-2.5 -6.4,-1.1 -15.7,-3.8 -27.9,-8.2 -12.2,-4.4 -19.9,-9.2 -23.2,-14.3 -10.1,-17.2 -15.2,-44.5 -15.2,-82 v -366.8 c 0,-7.4 1.8,-14.2 5.5,-20.5 3.7,-6.3 8.7,-11.3 15,-15 6.4,-3.7 13.2,-5.5 20.6,-5.5 z m 327.9,149.6 c 10.1,3.3 19.4,6.7 27.9,10.2 8.5,3.6 18.6,9.1 30.5,16.6 11.9,7.5 22.4,15.8 31.6,25 9.2,9.2 18.2,21.2 27.1,36.1 8.9,14.9 15.8,31.4 20.7,49.4 19.4,70 29.1,119 29.1,147.1 0,10.9 -1.5,18.3 -4.5,22.1 -7.7,10.1 -22.4,15.2 -44.3,15.2 h -118 V 1182.1 Z M 237.3,1032.5 c 5.5,0 10.7,1.1 15.8,3.3 5.1,2.2 9.4,5.1 13.1,8.8 3.7,3.7 6.6,8.1 8.8,13.1 2.2,5.1 3.3,10.3 3.3,15.8 v 299.2 c 0,-9.6 -1.8,-19.1 -5.3,-28.5 -3.6,-9.4 -8.7,-18.1 -15.4,-26 -6.7,-7.9 -15.4,-14.4 -26,-19.5 -10.7,-5.1 -22.4,-7.6 -35.2,-7.6 v -217.6 c 0,-7.4 1.8,-14.2 5.5,-20.5 3.7,-6.3 8.7,-11.3 15,-15 6.2,-3.7 13,-5.5 20.4,-5.5 z"
       id="path4" /></g></g>
</svg>
